# AST/ASF file generated using VICON BodyLanguage
# -----------------------------------------------
:version 1.10
:name VICON
:units
  mass 1.0
  length 0.45
  angle deg
:documentation
   .ast/.asf automatically generated from VICON data using
   VICON BodyBuilder and BodyLanguage model FoxedUp or BRILLIANT.MOD
:root
   order TX TY TZ RX RY RZ
   axis XYZ
   position 0 0 0  
   orientation 0 0 0 
:bonedata
  begin
     id 1 
     name lhipjoint
     direction 0.630082 -0.636569 0.44472 
     length 2.82754 
     axis 0 0 0  XYZ
  end
  begin
     id 2 
     name lfemur
     direction 0.34202 -0.939693 0  
     length 7.26371  
     axis 0 0 20  XYZ
    dof rx ry rz
    limits (-160.0 20.0)
           (-70.0 70.0)
           (-60.0 70.0)
  end
  begin
     id 3 
     name ltibia
     direction 0.34202 -0.939693 0   
     length 7.88616   
     axis 0 0 20   XYZ
    dof rx
    limits (-10.0 170.0)
  end
  begin
     id 4 
     name lfoot
     direction 0.0603448 -0.165796 0.984312   
     length 1.77861   
     axis -90 7.62852e-016 20   XYZ
    dof rx rz
    limits (-45.0 90.0)
           (-70.0 20.0)
  end
  begin
     id 5 
     name ltoes
     direction 1.53577e-011 -4.21876e-011 1   
     length 0.902235   
     axis -90 7.62852e-016 20   XYZ
    dof rx
    limits (-90.0 20.0)
  end
  begin
     id 6 
     name rhipjoint
     direction -0.656778 -0.61817 0.431866   
     length 2.9117  
     axis 0 0 0  XYZ 
  end
  begin
     id 7 
     name rfemur
     direction -0.34202 -0.939693 0   
     length 6.81603   
     axis 0 0 -20   XYZ
    dof rx ry rz
    limits (-160.0 20.0)
           (-70.0 70.0)
           (-70.0 60.0)
  end
  begin
     id 8 
     name rtibia
     direction -0.34202 -0.939693 0   
     length 8.05997   
     axis 0 0 -20   XYZ
    dof rx
    limits (-10.0 170.0)
 end
 begin
     id 9 
     name rfoot
     direction -0.0862404 -0.236944 0.967688   
     length 1.84899  
     axis -90 -7.62852e-016 -20   XYZ
    dof rx rz
    limits (-45.0 90.0)
           (-20.0 70.0)
  end
  begin
     id 10 
     name rtoes
     direction -1.53561e-011 -4.21798e-011 1   
     length 0.931579   
     axis -90 -7.62852e-016 -20   XYZ
    dof rx
    limits (-90.0 20.0)
  end
  begin
     id 11 
     name lowerback
     direction -0.0110203 0.991769 -0.127564   
     length 2.05686   
     axis 0 0 0   XYZ
    dof rx ry rz
    limits (-20.0 45.0)
           (-30.0 30.0)
           (-30.0 30.0)
  end
  begin
     id 12 
     name upperback
     direction 0.0109719 0.99993 -0.00432479   
     length 2.06234   
     axis 0 0 0   XYZ
    dof rx ry rz
    limits (-20.0 45.0)
           (-30.0 30.0)
           (-30.0 30.0)
  end
  begin
     id 13 
     name thorax
     direction 0.0173308 0.998351 0.0547306   
     length 2.09856   
     axis 0 0 0   XYZ
    dof rx ry rz
    limits (-20.0 45.0)
           (-30.0 30.0)
           (-30.0 30.0)
  end
  begin
     id 14 
     name lowerneck
     direction -0.0311736 0.989033 0.144366   
     length 1.98151   
     axis 0 0 0   XYZ
    dof rx ry rz
    limits (-20.0 45.0)
           (-30.0 30.0)
           (-30.0 30.0)
  end
  begin
     id 15 
     name upperneck
     direction 0.0421057 0.975772 -0.214698   
     length 2.01457   
     axis 0 0 0   XYZ
    dof rx ry rz
    limits (-20.0 45.0)
           (-30.0 30.0)
           (-30.0 30.0)
  end
  begin
     id 16
     name head
     direction 0.0136911 0.995958 -0.0887718  
     length 2.03562  
     axis 0 0 0   XYZ
    dof rx ry rz
    limits (-20.0 45.0)
           (-30.0 30.0)
           (-30.0 30.0)
  end
  begin
     id 17 
     name lclavicle
     direction 0.915335 0.396201 0.0720134  
     length 4.16217  
     axis 0 0 0   XYZ
    dof ry rz
    limits (-20.0 10.0)
           (0.0 20.0)
  end
  begin
     id 18 
     name lhumerus
     direction 1 -4.48965e-011 6.383e-018   
     length 4.93042   
     axis -180 -30 -90   XYZ
    dof rx ry rz
    limits (-60.0 90.0)
           (-90.0 90.0)
           (-90.0 90.0)
  end
  begin
     id 19
     name lradius
     direction 1 -4.48972e-011 8.8689e-027   
     length 3.68177   
     axis -180 -30 -90   XYZ
    dof rx
    limits (-10.0 170.0)
  end
  begin
     id 20
     name lwrist
     direction 1 -4.48953e-011 1.17971e-026   
     length 1.84089   
     axis -7.69454e-015 90 90   XYZ
    dof ry
    limits (-180.0 0.0)
 end
  begin
     id 21 
     name lhand
     direction 1 -4.49027e-011 2.35802e-026   
     length 0.721479   
     axis -1.50533e-014 90 90   XYZ
    dof rx rz
    limits (-90.0 90.0)
           (-45.0 45.0)
  end
  begin
     id 22 
     name lfingers
     direction 1 -4.48915e-011 4.72027e-026   
     length 0.581675   
     axis -3.01059e-014 90 90   XYZ
    dof rx
    limits (0.0 90.0)
  end
  begin
     id 23
     name lthumb
     direction 0.707107 -6.34948e-011 0.707107   
     length 0.835172   
     axis -90 45 -5.12164e-014   XYZ
    dof rx rz
    limits (-45.0 45.0)
           (-45.0 45.0)
  end
  begin
     id 24 
     name rclavicle
     direction -0.882781 0.469197 0.0234974   
     length 3.95647  
     axis 0 0 0   XYZ 
    dof ry rz
    limits (-10.0 20.0)
           (-20.0 0.0)
  end
  begin
     id 25 
     name rhumerus
     direction -1 -4.48965e-011 -1.54906e-018  
     length 5.07905   
     axis -180 30 90   XYZ
    dof rx ry rz
    limits (-90.0 60.0)
           (-90.0 90.0)
           (-90.0 90.0)
  end
  begin
     id 26 
     name rradius
     direction -1 -4.48972e-011 5.47489e-027   
     length 3.54394   
     axis -180 30 90   XYZ
    dof rx
    limits (-10.0 170.0)
  end
  begin
     id 27 
     name rwrist
     direction -1 -4.48955e-011 1.17969e-026   
     length 1.77197   
     axis -7.69454e-015 -90 -90   XYZ
    dof ry
    limits (-180.0 0.0)
  end
  begin
     id 28
     name rhand
     direction -1 -4.48982e-011 2.35888e-026   
     length 0.681156   
     axis -1.50533e-014 -90 -90   XYZ
    dof rx rz
    limits (-90.0 90.0)
           (-45.0 45.0)
  end
  begin
     id 29
     name rfingers
     direction -1 -4.48955e-011 4.71877e-026   
     length 0.549165   
     axis -3.01059e-014 -90 -90   XYZ
    dof rx
    limits (0.0 90.0)
  end
  begin
     id 30
     name rthumb
     direction -0.707107 -6.3491e-011 0.707107   
     length 0.788495   
     axis -90 -45 5.12164e-014   XYZ
    dof rx rz
    limits (-45.0 45.0)
           (-45.0 45.0)
  end
:hierarchy
  begin
    root lhipjoint rhipjoint lowerback
    lhipjoint lfemur
    lfemur ltibia
    ltibia lfoot
    lfoot ltoes
    rhipjoint rfemur
    rfemur rtibia
    rtibia rfoot
    rfoot rtoes
    lowerback upperback
    upperback thorax
    thorax lowerneck lclavicle rclavicle
    lowerneck upperneck
    upperneck head
    lclavicle lhumerus
    lhumerus lradius
    lradius lwrist
    lwrist lhand lthumb
    lhand lfingers
    rclavicle rhumerus
    rhumerus rradius
    rradius rwrist
    rwrist rhand rthumb
    rhand rfingers
  end

#!OML:ASF H:\Bending\Project 1\Capture day 1\Session 1\Subject.ASF
:FULLY-SPECIFIED
:DEGREES
193
root -9.84153 17.9564 -16.8176 -50.0082 89.7481 -55.2916
lowerback 8.71764 -0.4296 0.165991
upperback -1.35174 -0.428794 1.82215
thorax -6.30051 -0.176096 1.87386
lowerneck -22.8139 -3.78118 -6.41541
upperneck 28.2332 -3.5132 2.58047
head 13.5335 -1.75214 1.49291
rclavicle -2.28602e-015 -1.19271e-015
rhumerus -42.4245 20.0151 -96.2224
rradius 101.246
rwrist -15.6531
rhand -28.882 -24.412
rfingers 7.12502
rthumb -2.23771 -54.38
lclavicle -2.28602e-015 -1.19271e-015
lhumerus -44.1431 -29.0963 103.762
lradius 102.449
lwrist 36.5547
lhand -46.4945 1.86454
lfingers 7.12502
lthumb -19.2212 30.9347
rfemur 5.71004 -3.22457 14.1321
rtibia -9.54166e-015
rfoot -8.92757 -18.3487
rtoes -5.41685
lfemur -10.927 -3.7697 -15.3165
ltibia 25.7235
lfoot -21.2885 9.35418
ltoes -28.0489
194
root -9.83335 17.9623 -16.8213 -47.993 89.691 -53.3552
lowerback 8.50699 -0.455874 0.350224
upperback -1.4937 -0.445899 1.80256
thorax -6.33141 -0.191155 1.75079
lowerneck -22.8486 -3.73381 -6.28299
upperneck 28.4879 -3.45504 2.48226
head 13.6397 -1.72416 1.44494
rclavicle -9.69075e-015 7.55382e-015
rhumerus -42.2549 20.3511 -96.1807
rradius 102.263
rwrist -15.5704
rhand -29.3539 -24.9681
rfingers 7.12502
rthumb -2.69349 -54.9308
lclavicle -9.69075e-015 7.55382e-015
lhumerus -43.841 -28.5808 103.606
lradius 103.278
lwrist 38.4472
lhand -45.5583 3.07206
lfingers 7.12502
lthumb -18.3208 32.2293
rfemur 5.65115 -3.1882 14.1706
rtibia -1.43125e-014
rfoot -9.08827 -18.3059
rtoes -4.70704
lfemur -10.9171 -4.04592 -15.2958
ltibia 25.6493
lfoot -21.4516 9.55586
ltoes -27.059
195
root -9.82738 17.9692 -16.8244 -45.5003 89.604 -50.9883
lowerback 8.26871 -0.44918 0.538533
upperback -1.63626 -0.419396 1.7824
thorax -6.3483 -0.185146 1.61854
lowerneck -22.9008 -3.71758 -6.13773
upperneck 28.7456 -3.44115 2.37024
head 13.7535 -1.7157 1.38068
rclavicle -1.3418e-015 -1.94809e-014
rhumerus -41.8647 20.8325 -96.0272
rradius 103.169
rwrist -15.6107
rhand -30.0159 -25.7336
rfingers 7.12502
rthumb -3.33282 -55.6873
lclavicle -1.3418e-015 -1.94809e-014
lhumerus -43.3138 -28.0783 103.358
lradius 103.974
lwrist 40.0864
lhand -44.572 4.35685
lfingers 7.12502
lthumb -17.3718 33.6005
rfemur 5.53328 -3.13133 14.2382
rtibia -2.54444e-014
rfoot -9.2603 -18.2591
rtoes -3.95847
lfemur -10.975 -4.25902 -15.2475
ltibia 25.5927
lfoot -21.5898 9.75018
ltoes -26.2678
196
root -9.82279 17.9762 -16.8261 -42.4503 89.4928 -48.0886
lowerback 8.01829 -0.407284 0.701863
upperback -1.77565 -0.348723 1.76951
thorax -6.35532 -0.156455 1.50209
lowerneck -22.944 -3.73266 -6.01687
upperneck 28.9743 -3.47097 2.27824
head 13.857 -1.72598 1.31986
rclavicle -3.47873e-015 3.97569e-016
rhumerus -41.239 21.2458 -95.7768
rradius 103.91
rwrist -15.5914
rhand -30.5425 -26.7759
rfingers 7.12502
rthumb -3.84133 -56.7211
lclavicle -3.47873e-015 3.97569e-016
lhumerus -42.584 -27.6533 103.013
lradius 104.515
lwrist 41.3131
lhand -43.5873 5.64927
lfingers 7.12502
lthumb -16.4238 34.974
rfemur 5.38184 -3.05154 14.3258
rtibia -4.77083e-015
rfoot -9.41266 -18.224
rtoes -3.34694
lfemur -11.0677 -4.41365 -15.1803
ltibia 25.5452
lfoot -21.7025 9.939
ltoes -25.7544
197
root -9.81912 17.9823 -16.8259 -38.9146 89.3704 -44.7018
lowerback 7.78127 -0.335061 0.815965
upperback -1.90944 -0.242049 1.76808
thorax -6.36392 -0.107974 1.42108
lowerneck -22.9547 -3.77273 -5.94834
upperneck 29.1507 -3.53519 2.23266
head 13.9358 -1.75053 1.27964
rclavicle 7.7526e-015 3.57812e-015
rhumerus -40.4947 21.4374 -95.4562
rradius 104.512
rwrist -15.4108
rhand -30.7136 -28.0275
rfingers 7.12502
rthumb -4.00658 -57.9695
lclavicle 7.7526e-015 3.57812e-015
lhumerus -41.692 -27.3645 102.578
lradius 104.905
lwrist 42.0782
lhand -42.6368 6.88446
lfingers 7.12502
lthumb -15.5086 36.2825
rfemur 5.22468 -2.95275 14.4149
rtibia 3.18055e-014
rfoot -9.5201 -18.2093
rtoes -2.96083
lfemur -11.1639 -4.50987 -15.1094
ltibia 25.5031
lfoot -21.7866 10.1043
ltoes -25.5103
198
root -9.81641 17.9869 -16.8242 -34.8107 89.252 -40.722
lowerback 7.58537 -0.241744 0.86651
upperback -2.03516 -0.11247 1.77676
thorax -6.38723 -0.0455425 1.38425
lowerneck -22.9211 -3.82652 -5.93608
upperneck 29.2635 -3.61851 2.23846
head 13.9814 -1.78267 1.2658
rclavicle 3.32964e-015 -2.78299e-015
rhumerus -39.5935 21.3245 -95.0906
rradius 104.922
rwrist -15.063
rhand -30.4516 -29.3778
rfingers 7.12502
rthumb -3.75358 -59.3244
lclavicle 3.32964e-015 -2.78299e-015
lhumerus -40.6714 -27.2486 102.065
lradius 105.164
lwrist 42.4591
lhand -41.747 8.02232
lfingers 7.12502
lthumb -14.6514 37.4847
rfemur 5.08613 -2.84272 14.4832
rtibia -1.43125e-014
rfoot -9.57038 -18.2154
rtoes -2.78859
lfemur -11.241 -4.53844 -15.0529
ltibia 25.4689
lfoot -21.8325 10.2193
ltoes -25.485
